<mxfile host="app.diagrams.net" agent="Mozilla/5.0 (Macintosh; Intel Mac OS X 10_15_7) AppleWebKit/537.36 (KHTML, like Gecko) Chrome/135.0.0.0 Safari/537.36" version="24.8.4">
  <diagram name="Trang-1" id="ShlabGhnvjp--ksyCTPQ">
    <mxGraphModel dx="2389" dy="857" grid="1" gridSize="10" guides="1" tooltips="1" connect="1" arrows="1" fold="1" page="1" pageScale="1" pageWidth="827" pageHeight="1169" math="0" shadow="0">
      <root>
        <mxCell id="0" />
        <mxCell id="1" parent="0" />
        <mxCell id="sNiazmsWfw9SS6X2D1LB-51" style="edgeStyle=orthogonalEdgeStyle;rounded=0;orthogonalLoop=1;jettySize=auto;html=1;exitX=1;exitY=0.5;exitDx=0;exitDy=0;" edge="1" parent="1" source="sNiazmsWfw9SS6X2D1LB-1" target="sNiazmsWfw9SS6X2D1LB-31">
          <mxGeometry relative="1" as="geometry" />
        </mxCell>
        <mxCell id="sNiazmsWfw9SS6X2D1LB-54" value="&lt;font style=&quot;font-size: 14px;&quot;&gt;Good Quality&lt;/font&gt;" style="edgeLabel;html=1;align=center;verticalAlign=middle;resizable=0;points=[];" vertex="1" connectable="0" parent="sNiazmsWfw9SS6X2D1LB-51">
          <mxGeometry x="-0.5213" y="-2" relative="1" as="geometry">
            <mxPoint as="offset" />
          </mxGeometry>
        </mxCell>
        <mxCell id="sNiazmsWfw9SS6X2D1LB-56" style="edgeStyle=orthogonalEdgeStyle;rounded=0;orthogonalLoop=1;jettySize=auto;html=1;entryX=0;entryY=0.5;entryDx=0;entryDy=0;" edge="1" parent="1" source="sNiazmsWfw9SS6X2D1LB-1" target="sNiazmsWfw9SS6X2D1LB-23">
          <mxGeometry relative="1" as="geometry">
            <Array as="points">
              <mxPoint x="-80" y="90" />
              <mxPoint x="-80" y="390" />
            </Array>
          </mxGeometry>
        </mxCell>
        <mxCell id="sNiazmsWfw9SS6X2D1LB-57" value="&lt;font style=&quot;font-size: 14px;&quot;&gt;Not good Quality&lt;/font&gt;" style="edgeLabel;html=1;align=center;verticalAlign=middle;resizable=0;points=[];" vertex="1" connectable="0" parent="sNiazmsWfw9SS6X2D1LB-56">
          <mxGeometry x="-0.0043" y="-1" relative="1" as="geometry">
            <mxPoint as="offset" />
          </mxGeometry>
        </mxCell>
        <mxCell id="sNiazmsWfw9SS6X2D1LB-1" value="&lt;font style=&quot;font-size: 14px;&quot;&gt;&lt;font style=&quot;&quot;&gt;Chất&lt;/font&gt; lượng dữ liệu ban đầu&lt;/font&gt;" style="rounded=0;whiteSpace=wrap;html=1;strokeColor=#ae4132;align=center;verticalAlign=middle;fontFamily=Helvetica;fontSize=12;fillColor=#fad9d5;fontStyle=1" vertex="1" parent="1">
          <mxGeometry y="60" width="130" height="60" as="geometry" />
        </mxCell>
        <mxCell id="sNiazmsWfw9SS6X2D1LB-35" style="edgeStyle=orthogonalEdgeStyle;rounded=0;orthogonalLoop=1;jettySize=auto;html=1;" edge="1" parent="1" source="sNiazmsWfw9SS6X2D1LB-3">
          <mxGeometry relative="1" as="geometry">
            <mxPoint x="380" y="390" as="targetPoint" />
          </mxGeometry>
        </mxCell>
        <mxCell id="sNiazmsWfw9SS6X2D1LB-3" value="&lt;font style=&quot;font-size: 14px;&quot;&gt;&lt;b&gt;Trình tự hệ gene tham chiếu&lt;/b&gt;&lt;/font&gt;" style="ellipse;whiteSpace=wrap;html=1;fillColor=#eeeeee;strokeColor=#36393d;" vertex="1" parent="1">
          <mxGeometry x="310" y="440" width="140" height="80" as="geometry" />
        </mxCell>
        <mxCell id="sNiazmsWfw9SS6X2D1LB-32" style="edgeStyle=orthogonalEdgeStyle;rounded=0;orthogonalLoop=1;jettySize=auto;html=1;entryX=0;entryY=0.5;entryDx=0;entryDy=0;" edge="1" parent="1" source="sNiazmsWfw9SS6X2D1LB-21" target="sNiazmsWfw9SS6X2D1LB-31">
          <mxGeometry relative="1" as="geometry" />
        </mxCell>
        <mxCell id="sNiazmsWfw9SS6X2D1LB-33" value="&lt;font style=&quot;font-size: 14px;&quot;&gt;Bowtie2&lt;/font&gt;&lt;div&gt;&lt;font style=&quot;font-size: 14px;&quot;&gt;S&lt;/font&gt;&lt;span style=&quot;font-size: 14px;&quot;&gt;amtools&lt;/span&gt;&lt;/div&gt;" style="edgeLabel;html=1;align=center;verticalAlign=middle;resizable=0;points=[];" vertex="1" connectable="0" parent="sNiazmsWfw9SS6X2D1LB-32">
          <mxGeometry x="-0.0222" y="-2" relative="1" as="geometry">
            <mxPoint y="-22" as="offset" />
          </mxGeometry>
        </mxCell>
        <mxCell id="sNiazmsWfw9SS6X2D1LB-21" value="&lt;font style=&quot;font-size: 14px;&quot;&gt;&lt;font style=&quot;&quot;&gt;&lt;b&gt;Chất lượng dữ liệu tinh sạch&lt;/b&gt;&lt;/font&gt;&lt;/font&gt;" style="rounded=0;whiteSpace=wrap;html=1;strokeColor=#ae4132;align=center;verticalAlign=middle;fontFamily=Helvetica;fontSize=12;fillColor=#fad9d5;" vertex="1" parent="1">
          <mxGeometry x="210" y="360" width="130" height="60" as="geometry" />
        </mxCell>
        <mxCell id="sNiazmsWfw9SS6X2D1LB-27" style="edgeStyle=orthogonalEdgeStyle;rounded=0;orthogonalLoop=1;jettySize=auto;html=1;exitX=1;exitY=0.5;exitDx=0;exitDy=0;" edge="1" parent="1" source="sNiazmsWfw9SS6X2D1LB-23" target="sNiazmsWfw9SS6X2D1LB-21">
          <mxGeometry relative="1" as="geometry" />
        </mxCell>
        <mxCell id="sNiazmsWfw9SS6X2D1LB-29" value="&lt;font style=&quot;font-size: 14px;&quot;&gt;FastQC&lt;/font&gt;" style="edgeLabel;html=1;align=center;verticalAlign=middle;resizable=0;points=[];" vertex="1" connectable="0" parent="sNiazmsWfw9SS6X2D1LB-27">
          <mxGeometry x="0.025" y="1" relative="1" as="geometry">
            <mxPoint x="-11" y="-9" as="offset" />
          </mxGeometry>
        </mxCell>
        <mxCell id="sNiazmsWfw9SS6X2D1LB-23" value="&lt;font style=&quot;font-size: 14px;&quot;&gt;&lt;font style=&quot;&quot;&gt;&lt;b&gt;Dữ liệu tinh sạch&lt;/b&gt;&lt;/font&gt;&lt;/font&gt;" style="rounded=0;whiteSpace=wrap;html=1;strokeColor=#6c8ebf;align=center;verticalAlign=middle;fontFamily=Helvetica;fontSize=12;fillColor=#dae8fc;" vertex="1" parent="1">
          <mxGeometry y="360" width="130" height="60" as="geometry" />
        </mxCell>
        <mxCell id="sNiazmsWfw9SS6X2D1LB-30" style="edgeStyle=orthogonalEdgeStyle;rounded=0;orthogonalLoop=1;jettySize=auto;html=1;exitX=0.5;exitY=1;exitDx=0;exitDy=0;" edge="1" parent="1" source="sNiazmsWfw9SS6X2D1LB-25" target="sNiazmsWfw9SS6X2D1LB-23">
          <mxGeometry relative="1" as="geometry" />
        </mxCell>
        <mxCell id="sNiazmsWfw9SS6X2D1LB-49" value="&lt;font style=&quot;font-size: 14px;&quot;&gt;Trimmomatic&lt;/font&gt;" style="edgeLabel;html=1;align=center;verticalAlign=middle;resizable=0;points=[];" vertex="1" connectable="0" parent="sNiazmsWfw9SS6X2D1LB-30">
          <mxGeometry x="-0.12" y="2" relative="1" as="geometry">
            <mxPoint as="offset" />
          </mxGeometry>
        </mxCell>
        <mxCell id="sNiazmsWfw9SS6X2D1LB-48" style="edgeStyle=orthogonalEdgeStyle;rounded=0;orthogonalLoop=1;jettySize=auto;html=1;entryX=0.5;entryY=1;entryDx=0;entryDy=0;" edge="1" parent="1" source="sNiazmsWfw9SS6X2D1LB-25" target="sNiazmsWfw9SS6X2D1LB-1">
          <mxGeometry relative="1" as="geometry">
            <Array as="points">
              <mxPoint x="65" y="240" />
            </Array>
          </mxGeometry>
        </mxCell>
        <mxCell id="sNiazmsWfw9SS6X2D1LB-50" value="&lt;font style=&quot;font-size: 14px;&quot;&gt;FastQC&lt;/font&gt;" style="edgeLabel;html=1;align=center;verticalAlign=middle;resizable=0;points=[];" vertex="1" connectable="0" parent="sNiazmsWfw9SS6X2D1LB-48">
          <mxGeometry x="-0.05" relative="1" as="geometry">
            <mxPoint as="offset" />
          </mxGeometry>
        </mxCell>
        <mxCell id="sNiazmsWfw9SS6X2D1LB-25" value="&lt;font style=&quot;font-size: 14px;&quot;&gt;&lt;font style=&quot;&quot;&gt;&lt;b&gt;Dữ liệu RNA-seq&lt;/b&gt;&lt;/font&gt;&lt;/font&gt;" style="rounded=0;whiteSpace=wrap;html=1;strokeColor=#6c8ebf;align=center;verticalAlign=middle;fontFamily=Helvetica;fontSize=12;fillColor=#dae8fc;" vertex="1" parent="1">
          <mxGeometry y="200" width="130" height="60" as="geometry" />
        </mxCell>
        <mxCell id="sNiazmsWfw9SS6X2D1LB-37" style="edgeStyle=orthogonalEdgeStyle;rounded=0;orthogonalLoop=1;jettySize=auto;html=1;exitX=1;exitY=0.5;exitDx=0;exitDy=0;" edge="1" parent="1" source="sNiazmsWfw9SS6X2D1LB-31" target="sNiazmsWfw9SS6X2D1LB-36">
          <mxGeometry relative="1" as="geometry" />
        </mxCell>
        <mxCell id="sNiazmsWfw9SS6X2D1LB-38" value="&lt;font style=&quot;font-size: 14px;&quot;&gt;featureCounts&lt;/font&gt;" style="edgeLabel;html=1;align=center;verticalAlign=middle;resizable=0;points=[];" vertex="1" connectable="0" parent="sNiazmsWfw9SS6X2D1LB-37">
          <mxGeometry x="-0.125" y="-4" relative="1" as="geometry">
            <mxPoint x="2" y="-14" as="offset" />
          </mxGeometry>
        </mxCell>
        <mxCell id="sNiazmsWfw9SS6X2D1LB-31" value="&lt;span style=&quot;font-size: 14px;&quot;&gt;&lt;b&gt;Dữ liệu dóng hàng (BAM)&lt;/b&gt;&lt;/span&gt;" style="rounded=0;whiteSpace=wrap;html=1;strokeColor=#82b366;align=center;verticalAlign=middle;fontFamily=Helvetica;fontSize=12;fillColor=#d5e8d4;" vertex="1" parent="1">
          <mxGeometry x="430" y="360" width="130" height="60" as="geometry" />
        </mxCell>
        <mxCell id="sNiazmsWfw9SS6X2D1LB-43" style="edgeStyle=orthogonalEdgeStyle;rounded=0;orthogonalLoop=1;jettySize=auto;html=1;entryX=0.5;entryY=1;entryDx=0;entryDy=0;" edge="1" parent="1" source="sNiazmsWfw9SS6X2D1LB-36" target="sNiazmsWfw9SS6X2D1LB-42">
          <mxGeometry relative="1" as="geometry" />
        </mxCell>
        <mxCell id="sNiazmsWfw9SS6X2D1LB-44" value="&lt;font style=&quot;font-size: 14px;&quot;&gt;DESeq2&lt;/font&gt;" style="edgeLabel;html=1;align=center;verticalAlign=middle;resizable=0;points=[];" vertex="1" connectable="0" parent="sNiazmsWfw9SS6X2D1LB-43">
          <mxGeometry x="0.04" y="-1" relative="1" as="geometry">
            <mxPoint as="offset" />
          </mxGeometry>
        </mxCell>
        <mxCell id="sNiazmsWfw9SS6X2D1LB-36" value="&lt;span style=&quot;font-size: 14px;&quot;&gt;&lt;b&gt;Kết quả định lượng biểu hiện gene&lt;/b&gt;&lt;/span&gt;" style="rounded=0;whiteSpace=wrap;html=1;strokeColor=#9673a6;align=center;verticalAlign=middle;fontFamily=Helvetica;fontSize=12;fillColor=#e1d5e7;" vertex="1" parent="1">
          <mxGeometry x="670" y="360" width="130" height="60" as="geometry" />
        </mxCell>
        <mxCell id="sNiazmsWfw9SS6X2D1LB-41" style="edgeStyle=orthogonalEdgeStyle;rounded=0;orthogonalLoop=1;jettySize=auto;html=1;" edge="1" parent="1" source="sNiazmsWfw9SS6X2D1LB-40">
          <mxGeometry relative="1" as="geometry">
            <mxPoint x="610" y="390" as="targetPoint" />
          </mxGeometry>
        </mxCell>
        <mxCell id="sNiazmsWfw9SS6X2D1LB-40" value="&lt;font style=&quot;font-size: 14px;&quot;&gt;&lt;b&gt;Chú giải hệ gene tham chiếu&lt;/b&gt;&lt;/font&gt;" style="ellipse;whiteSpace=wrap;html=1;fillColor=#eeeeee;strokeColor=#36393d;" vertex="1" parent="1">
          <mxGeometry x="540" y="440" width="140" height="80" as="geometry" />
        </mxCell>
        <mxCell id="sNiazmsWfw9SS6X2D1LB-46" style="edgeStyle=orthogonalEdgeStyle;rounded=0;orthogonalLoop=1;jettySize=auto;html=1;entryX=0.5;entryY=1;entryDx=0;entryDy=0;" edge="1" parent="1" source="sNiazmsWfw9SS6X2D1LB-42" target="sNiazmsWfw9SS6X2D1LB-45">
          <mxGeometry relative="1" as="geometry" />
        </mxCell>
        <mxCell id="sNiazmsWfw9SS6X2D1LB-47" value="&lt;font style=&quot;font-size: 14px;&quot;&gt;KEGG Enrichment&lt;/font&gt;&lt;div&gt;&lt;font style=&quot;font-size: 14px;&quot;&gt;GO Enrichment&lt;/font&gt;&lt;/div&gt;" style="edgeLabel;html=1;align=center;verticalAlign=middle;resizable=0;points=[];" vertex="1" connectable="0" parent="sNiazmsWfw9SS6X2D1LB-46">
          <mxGeometry y="1" relative="1" as="geometry">
            <mxPoint x="1" as="offset" />
          </mxGeometry>
        </mxCell>
        <mxCell id="sNiazmsWfw9SS6X2D1LB-42" value="&lt;span style=&quot;font-size: 14px;&quot;&gt;&lt;b&gt;Gene biểu hiện khác biệt&lt;/b&gt;&lt;/span&gt;" style="rounded=0;whiteSpace=wrap;html=1;strokeColor=#b46504;align=center;verticalAlign=middle;fontFamily=Helvetica;fontSize=12;fillColor=#fad7ac;" vertex="1" parent="1">
          <mxGeometry x="670" y="200" width="130" height="60" as="geometry" />
        </mxCell>
        <mxCell id="sNiazmsWfw9SS6X2D1LB-45" value="&lt;span style=&quot;font-size: 14px;&quot;&gt;&lt;b&gt;Các phân tích thống kê khác (KEGG/GO)&lt;/b&gt;&lt;/span&gt;" style="rounded=0;whiteSpace=wrap;html=1;strokeColor=#d6b656;align=center;verticalAlign=middle;fontFamily=Helvetica;fontSize=12;fillColor=#fff2cc;" vertex="1" parent="1">
          <mxGeometry x="670" y="60" width="130" height="60" as="geometry" />
        </mxCell>
      </root>
    </mxGraphModel>
  </diagram>
</mxfile>
